HIERARCHY
ROOT root
{
	OFFSET	0	13.1	24.9
	CHANNELS 6  Xposition Yposition Zposition Xrotation Yrotation Zrotation
	JOINT spine_1
	{
		OFFSET	0	9.99999	0
		CHANNELS 3  Xrotation Yrotation Zrotation
		JOINT spine_2
		{
			OFFSET	0	112	-10
			CHANNELS 3  Xrotation Yrotation Zrotation
			JOINT spine_3
			{
				OFFSET	0	206.5	19.3
				CHANNELS 3  Xrotation Yrotation Zrotation
				JOINT spine_4
				{
					OFFSET	0	110.4	14.6
					CHANNELS 3  Xrotation Yrotation Zrotation
					JOINT neck_1
					{
						OFFSET	0	71.8	-50.3
						CHANNELS 3  Xrotation Yrotation Zrotation
						JOINT neck_2
						{
							OFFSET	0	86.2	-25.8
							CHANNELS 3  Xrotation Yrotation Zrotation
							JOINT head_ee
							{
								OFFSET	0	179.8	-8.7
								CHANNELS 3  Xrotation Yrotation Zrotation
								End Site
								{
									OFFSET	1	0	0
								}
							}
						}
					}
					JOINT left_clavicle
					{
						OFFSET	-43.2	22.4	-70.8
						CHANNELS 3  Xrotation Yrotation Zrotation
						JOINT left_shoulder
						{
							OFFSET	-93.9	-5.79999	48.7
							CHANNELS 3  Xrotation Yrotation Zrotation
							JOINT left_elbow
							{
								OFFSET	-291.4	-30.8	15.2
								CHANNELS 3  Xrotation Yrotation Zrotation
								JOINT left_lowarm_twist
								{
									OFFSET	-110.7	-3.89999	13.6
									CHANNELS 3  Xrotation Yrotation Zrotation
									JOINT left_hand
									{
										OFFSET	-110.7	-3.89999	13.6
										CHANNELS 3  Xrotation Yrotation Zrotation
										JOINT left_ee
										{
											OFFSET	-80.8	-5.10001	12.1
											CHANNELS 3  Xrotation Yrotation Zrotation
											End Site
											{
												OFFSET	1	0	0
											}
										}
									}
								}
							}
						}
					}
					JOINT right_clavicle
					{
						OFFSET	43.2	22.4	-70.8
						CHANNELS 3  Xrotation Yrotation Zrotation
						JOINT right_shoulder
						{
							OFFSET	93.9	-5.79999	48.7
							CHANNELS 3  Xrotation Yrotation Zrotation
							JOINT right_elbow
							{
								OFFSET	291.4	-30.8	15.2
								CHANNELS 3  Xrotation Yrotation Zrotation
								JOINT right_lowarm_twist
								{
									OFFSET	110.7	-3.89999	13.6
									CHANNELS 3  Xrotation Yrotation Zrotation
									JOINT right_hand
									{
										OFFSET	110.7	-3.89999	13.6
										CHANNELS 3  Xrotation Yrotation Zrotation
										JOINT right_ee
										{
											OFFSET	80.8	-5.10001	12.1
											CHANNELS 3  Xrotation Yrotation Zrotation
											End Site
											{
												OFFSET	1	0	0
											}
										}
									}
								}
							}
						}
					}
				}
			}
		}
	}
	JOINT left_hip
	{
		OFFSET	-82.8	-127.5	0.300001
		CHANNELS 3  Xrotation Yrotation Zrotation
		JOINT left_knee
		{
			OFFSET	-28.2	-396.7	2.2
			CHANNELS 3  Xrotation Yrotation Zrotation
			JOINT left_ankle
			{
				OFFSET	-11.7	-411.3	35.4
				CHANNELS 3  Xrotation Yrotation Zrotation
				JOINT left_toes
				{
					OFFSET	0	-60	-88.6
					CHANNELS 3  Xrotation Yrotation Zrotation
					JOINT left_foot_ee
					{
						OFFSET	-22.5	-16.5	-42.2
						CHANNELS 3  Xrotation Yrotation Zrotation
						End Site
						{
							OFFSET	1	0	0
						}
					}
				}
			}
		}
	}
	JOINT right_hip
	{
		OFFSET	82.8	-127.5	0.300001
		CHANNELS 3  Xrotation Yrotation Zrotation
		JOINT right_knee
		{
			OFFSET	28.2	-396.7	2.2
			CHANNELS 3  Xrotation Yrotation Zrotation
			JOINT right_ankle
			{
				OFFSET	11.7	-411.3	35.4
				CHANNELS 3  Xrotation Yrotation Zrotation
				JOINT right_toes
				{
					OFFSET	0	-60	-88.6
					CHANNELS 3  Xrotation Yrotation Zrotation
					JOINT right_foot_ee
					{
						OFFSET	22.5	-16.5	-42.2
						CHANNELS 3  Xrotation Yrotation Zrotation
						End Site
						{
							OFFSET	1	0	0
						}
					}
				}
			}
		}
	}
}
MOTION
Frames: 15
Frame Time: 0.02
2217.47 756.682 -1545.49 5.86921 54.5202 -16.6017 -1.05086 1.05466 6.42696 -1.02813 0.644435 6.48073 -0.936607 -0.839898 6.4584 -0.994708 0.188389 6.50984 0.523442 19.3448 -4.96266 2.10562 38.4645 -3.95609 -0.0 0.0 -0.0 -0.185509 23.174 2.42757 -44.0512 -29.6434 60.0681 0.675557 -18.5029 0.110041 -54.7557 -4.6387 4.90823 -6.10607 16.2751 -32.87 -0.0 0.0 -0.0 13.5671 26.3269 -26.9524 16.129 32.1354 -67.2249 2.1 46.1253 -0.89419 6.6863 -0.18714 0.833105 4.44895 17.0369 -23.0123 0.0 0.0 0.0 3.11327 26.1618 0.903762 -18.3039 0.311969 2.77963 -1.08203 7.57609 0.158764 -2.35255 0.0 0.0 -0.0 0.0 -0.0 -4.86506 29.1637 7.90999 -12.5588 -0.310076 -1.89854 10.0209 8.05866 1.48118 -8.68381 0.0 0.0 0.0 0.0 0.0 
2201.58 752.023 -1547.34 5.83075 56.4422 -15.4901 -1.05585 1.11222 6.0848 -1.03555 0.723521 6.14294 -0.940836 -0.68598 6.14723 -0.993405 0.291555 6.17839 1.49967 19.388 -5.17155 3.28844 38.5261 -4.55551 -0.0 0.0 -0.0 -0.452849 23.1891 2.06153 -44.0253 -29.6522 60.1069 0.712699 -19.4456 0.122117 -55.7857 -4.76379 4.95077 -5.38856 15.2649 -28.39 -0.0 0.0 -0.0 13.6545 26.2796 -27.1616 15.6174 29.5815 -65.5679 2.31943 48.9587 -1.05613 9.3382 -0.234229 1.16855 4.60641 21.304 -21.7354 0.0 0.0 0.0 4.32274 25.7341 -0.0692769 -12.718 0.311318 1.92293 1.66312 8.55403 -0.242389 -2.9864 0.0 0.0 -0.0 0.0 -0.0 -5.0479 29.3314 7.45397 -14.4937 -0.320582 -2.19522 9.4844 7.15498 1.39857 -8.72947 0.0 0.0 0.0 0.0 0.0 
2189.11 751.708 -1544.91 5.69138 57.5917 -15.2103 -1.03764 1.12997 5.87139 -1.01879 0.754747 5.93111 -0.924589 -0.605537 5.94813 -0.973762 0.339734 5.96914 2.18363 19.4348 -5.28024 4.11497 38.5637 -4.9318 -0.0 0.0 -0.0 -0.842114 23.1229 1.51712 -44.1078 -29.5826 59.9874 0.738889 -20.1038 0.130978 -56.4826 -4.84883 4.97828 -4.86349 14.5564 -25.1803 -0.0 0.0 -0.0 13.7051 26.2253 -27.2863 15.237 27.765 -64.3677 2.52114 51.3073 -1.21099 11.1952 -0.257937 1.40456 4.74108 24.3488 -20.8754 0.0 0.0 0.0 4.53439 25.3833 -0.410164 -9.04121 0.265346 1.36074 3.50664 9.23448 -0.508651 -3.40056 0.0 0.0 -0.0 0.0 -0.0 -4.55174 29.3555 6.7932 -15.4832 -0.322081 -2.34702 9.0965 6.50546 1.33929 -8.79381 0.0 0.0 0.0 0.0 0.0 
2183.14 755.884 -1540.68 4.60341 57.5903 -13.7193 -0.953894 1.12825 5.68412 -0.936255 0.764876 5.74412 -0.84481 -0.545124 5.76904 -0.891029 0.371261 5.78279 2.67552 19.477 -5.34089 4.70825 38.5888 -5.18163 -0.0 0.0 -0.0 -0.821071 22.589 1.47479 -43.1915 -29.9267 59.9318 0.768782 -20.8484 0.141435 -56.948 -4.90582 4.99607 -4.49025 14.0752 -22.9209 -0.0 0.0 -0.0 13.7383 26.1894 -27.368 15.0011 26.4887 -63.553 2.67622 52.9633 -1.33343 12.5152 -0.270133 1.57272 4.84736 26.513 -20.2793 0.0 0.0 0.0 4.63978 25.0261 -1.2022 -5.96486 0.19923 0.893338 4.56567 9.66349 -0.660419 -3.69085 0.0 0.0 -0.0 0.0 -0.0 -4.16788 29.2025 6.43288 -16.057 -0.32175 -2.43506 8.79623 5.75065 1.29221 -8.88881 0.0 0.0 0.0 0.0 0.0 
2175.23 748.743 -1536.65 4.90186 57.4813 -13.1432 -0.969846 1.12454 5.55237 -0.953033 0.769517 5.61241 -0.863416 -0.512721 5.64158 -0.907595 0.38323 5.65182 2.75581 19.5102 -5.3271 4.80642 38.6194 -5.19496 -0.0 0.0 -0.0 -0.84791 22.1988 1.38488 -42.5957 -30.211 59.821 0.789688 -21.3648 0.148964 -57.2693 -4.94523 5.00808 -4.22179 13.7554 -21.2955 -0.0 0.0 -0.0 13.7565 26.2608 -27.4018 14.784 25.6496 -63.0482 2.80595 54.2574 -1.43786 13.4484 -0.276415 1.69174 4.93194 28.0494 -19.8868 0.0 0.0 0.0 3.94287 24.7163 -1.07591 -4.10411 0.147088 0.612548 5.11772 9.62382 -0.739088 -3.88668 0.0 0.0 -0.0 0.0 -0.0 -3.52919 28.4976 5.96203 -16.2728 -0.321397 -2.46817 8.61231 5.1685 1.26296 -8.98054 0.0 0.0 0.0 0.0 0.0 
2163.55 751.826 -1527.75 5.14854 57.2708 -12.8874 -1.26961 1.04872 5.35813 -1.25392 0.706156 5.41378 -1.17269 -0.559321 5.43086 -1.2137 0.304087 5.45105 2.21346 18.6208 -6.67674 4.22623 38.259 -6.58011 -0.0 0.0 -0.0 -0.401879 22.7536 2.07885 -41.3879 -30.879 60.7469 0.835672 -22.4878 0.166136 -58.2381 -5.06448 5.04296 -3.95605 14.2773 -19.189 -0.0 0.0 -0.0 13.2937 26.5323 -26.2925 13.8939 24.8318 -62.9448 2.90915 55.232 -1.52214 12.8768 -0.272797 1.61883 5.118 28.0653 -21.1211 0.0 0.0 0.0 3.36155 24.1511 -0.438205 -5.72382 0.192991 0.856874 1.05241 8.01801 -0.153621 0.065983 -0.0 -0.0 -0.0 0.0 -0.0 -3.46173 30.5692 5.67472 -16.3857 -0.321163 -2.48549 10.2365 1.7831 1.47469 -8.98123 0.0 0.0 0.0 0.0 0.0 
2151.08 755.559 -1520.03 6.43594 56.0059 -13.7485 -1.52165 0.997334 5.2412 -1.50662 0.662281 5.29384 -1.43057 -0.59843 5.30142 -1.46968 0.245112 5.32937 0.684677 18.1128 -7.0308 2.39536 37.8903 -6.42113 -0.0 0.0 -0.0 -0.0676941 22.7271 2.53989 -41.0901 -31.0464 60.5738 0.866725 -23.2361 0.178201 -58.1429 -5.05274 5.03962 -3.36768 12.1352 -16.5377 -0.0 0.0 -0.0 12.9916 26.836 -25.5567 12.6967 24.8444 -63.067 2.98201 55.8924 -1.58223 11.5535 -0.261631 1.45017 5.25905 25.874 -23.4916 0.0 0.0 0.0 3.18314 22.1766 0.2809 -9.14679 0.267169 1.37684 -3.14065 6.15729 0.46321 3.00977 -0.0 -0.0 -0.0 0.0 -0.0 -3.41723 32.1046 5.43175 -16.0177 -0.321801 -2.42903 11.7411 -0.307931 1.67273 -8.99257 0.0 0.0 0.0 0.0 0.0 
2144.8 760.185 -1510.87 5.51319 54.1171 -12.0224 -1.49877 0.948051 5.13634 -1.48431 0.619743 5.18607 -1.41412 -0.613088 5.18686 -1.45158 0.212621 5.21855 -0.391335 17.7454 -7.30782 1.11184 37.6015 -6.34012 -0.0 0.0 -0.0 0.167289 22.6373 2.85694 -40.8762 -31.2301 60.2881 0.880935 -23.5757 0.183845 -58.0766 -5.04456 5.03728 -2.8964 10.4146 -14.3579 -0.0 0.0 -0.0 12.7639 26.9939 -25.013 11.726 24.938 -62.7749 3.0326 56.3381 -1.62423 10.4677 -0.249561 1.31201 5.32609 24.0777 -25.1112 0.0 0.0 0.0 3.13378 20.1546 0.0203447 -11.4832 0.299905 1.73382 -6.55781 4.80126 0.974739 4.941 -0.0 -0.0 -0.0 0.0 -0.0 -3.44693 33.23 5.5801 -14.8583 -0.321439 -2.25115 13.0211 -1.32428 1.84196 -8.76935 0.0 0.0 0.0 0.0 0.0 
2135.63 758.572 -1507.68 5.47471 52.7265 -11.3127 -1.50602 0.918798 5.06534 -1.49195 0.595047 5.11337 -1.42516 -0.621081 5.11028 -1.46153 0.192682 5.14418 -1.1484 17.4836 -7.46701 0.205581 37.3474 -6.24349 -0.0 0.0 -0.0 0.378863 22.5688 3.14473 -40.4619 -31.491 60.1951 0.89771 -23.9744 0.190608 -58.0528 -5.04163 5.03644 -2.56434 9.15506 -12.8172 -0.0 0.0 -0.0 12.5988 27.0978 -24.6211 10.9097 25.0034 -62.5541 3.0294 56.3103 -1.62157 9.65834 -0.238863 1.20918 5.35947 22.6973 -26.227 0.0 0.0 0.0 3.12932 18.7302 -0.157211 -13.1691 0.314471 1.99208 -8.92649 3.85942 1.33351 6.29457 -0.0 -0.0 -0.0 0.0 -0.0 -3.97236 34.07 5.99346 -14.5891 -0.32084 -2.20985 13.9196 -2.03223 1.9595 -8.57959 0.0 0.0 0.0 0.0 0.0 
2130.06 746.427 -1500.74 6.52153 51.6232 -11.9155 -1.36816 0.898364 5.01024 -1.35439 0.578148 5.05708 -1.29053 -0.612425 5.05306 -1.32609 0.192229 5.08632 -1.11172 17.589 -6.21632 0.105778 36.5588 -4.85083 -0.0 0.0 -0.0 0.579218 21.468 3.32109 -38.7904 -31.7329 58.8744 0.875714 -23.4511 0.181762 -57.3106 -4.95031 5.00961 -1.53153 6.30493 -7.38813 -0.0 0.0 -0.0 12.7616 27.4807 -24.9467 9.74404 26.627 -62.8359 2.87633 54.9271 -1.49522 8.05881 -0.213451 1.00645 5.22666 19.3549 -27.3335 0.0 0.0 0.0 3.44346 15.8274 -0.28977 -11.1115 0.295672 1.67695 -11.8577 8.75944 1.77188 6.74022 -0.0 -0.0 -0.0 0.0 -0.0 -4.27514 34.2439 6.30263 -11.9114 -0.304325 -1.79938 15.7931 -3.24154 2.20217 -10.6461 0.0 0.0 0.0 0.0 0.0 
2122.0 754.462 -1499.97 5.49972 50.683 -10.4862 -1.25297 0.817362 4.98479 -1.23929 0.498921 5.02656 -1.18349 -0.673293 5.00623 -1.21842 0.124754 5.04965 -1.86103 18.0895 -4.32495 -0.909382 36.1007 -2.45786 -0.0 0.0 -0.0 0.553491 21.7604 3.3121 -37.0765 -31.6716 57.3079 0.798745 -21.5874 0.15228 -57.1305 -4.9282 5.00292 -0.889631 5.05692 -3.72717 -0.0 0.0 -0.0 12.357 27.1242 -24.0643 8.07844 27.6448 -63.02 2.74843 53.6934 -1.39135 5.88349 -0.169828 0.732015 5.12096 16.7651 -28.0868 0.0 0.0 0.0 3.53202 14.2383 -0.26739 -12.262 0.307578 1.85307 -9.1891 15.7895 1.37903 7.81274 -0.0 -0.0 -0.0 0.0 -0.0 -4.50142 34.3709 6.72335 -16.2939 -0.321356 -2.4714 21.5212 -3.72512 2.9222 -9.28461 0.0 0.0 0.0 0.0 0.0 
2112.84 749.014 -1495.37 6.30364 50.5161 -11.2756 -1.28779 0.71696 4.97517 -1.27411 0.399331 5.01059 -1.22738 -0.77069 4.96715 -1.26179 0.0224217 5.02639 -1.96882 17.6965 -4.77562 -1.03035 35.7514 -2.94816 -0.0 0.0 -0.0 0.788759 22.4411 3.70532 -35.8907 -31.7805 56.5046 0.735361 -20.0155 0.129768 -58.0709 -5.04387 5.03708 -0.180272 4.18042 0.563276 -0.0 0.0 -0.0 12.0789 26.943 -23.4512 6.72087 28.3924 -63.0509 2.62849 52.4666 -1.29545 3.1592 -0.100548 0.390939 4.91048 12.4459 -28.9194 0.0 0.0 0.0 1.10881 13.7616 0.765537 -13.0867 0.313936 1.97945 -4.35335 21.4614 0.659709 9.05457 -0.0 -0.0 -0.0 0.0 -0.0 -3.63986 33.8594 6.89867 -16.0216 -0.321796 -2.42962 22.1301 -5.25547 2.99251 -9.12865 0.0 0.0 0.0 0.0 0.0 
2097.71 752.895 -1484.47 6.13592 49.5159 -10.5526 -1.29325 0.774616 4.79425 -1.28059 0.468341 4.83369 -1.22983 -0.662452 4.81099 -1.2621 0.104739 4.85515 -2.04108 17.4334 -5.0892 -1.10931 35.5258 -3.28988 -0.0 0.0 -0.0 1.03445 23.1954 4.10911 -34.3617 -31.955 55.8247 0.722304 -19.6876 0.125334 -58.629 -5.11276 5.05646 0.321528 3.517 3.60056 -0.0 0.0 -0.0 11.9013 26.8176 -23.0615 5.05134 28.8552 -62.9392 2.35993 49.449 -1.08679 0.809822 -0.0278287 0.0996831 4.69 9.10011 -28.9777 0.0 0.0 0.0 0.577574 13.4248 2.25524 -11.3166 0.298054 1.70833 -0.795581 25.3167 0.12189 9.80944 -0.0 -0.0 -0.0 0.0 -0.0 -3.8616 33.5505 7.21946 -16.7187 -0.320273 -2.53657 23.3015 -5.97001 3.13179 -8.71412 0.0 0.0 0.0 0.0 0.0 
2089.86 753.359 -1477.09 5.89576 48.7373 -9.64066 -1.29475 0.75303 4.45536 -1.28383 0.468291 4.49414 -1.23728 -0.584316 4.48055 -1.26526 0.12989 4.51655 -1.94348 17.2016 -5.44903 -0.983972 35.3705 -3.73864 -0.0 0.0 -0.0 1.16013 23.4438 4.301 -33.0457 -32.1468 54.9513 0.713368 -19.4625 0.12234 -59.0194 -5.16106 5.06961 0.667289 3.05993 5.70841 -0.0 0.0 -0.0 11.7634 26.7342 -22.7575 3.62052 29.1337 -62.7879 2.17713 47.1564 -0.950271 -0.834392 0.0301455 -0.102292 4.5424 6.70606 -29.0198 0.0 0.0 0.0 -0.238709 13.0625 2.5749 -10.0777 0.281957 1.51891 1.74114 28.0263 -0.269453 10.3408 -0.0 -0.0 -0.0 0.0 -0.0 -3.98726 33.404 7.87439 -17.2116 -0.318412 -2.61217 24.0934 -6.43739 3.225 -8.4234 0.0 0.0 0.0 0.0 0.0 
2081.43 758.226 -1472.22 6.25357 47.4475 -9.60407 -1.42028 0.745147 4.22396 -1.41048 0.475106 4.26272 -1.36588 -0.533557 4.25581 -1.39111 0.144625 4.28663 -3.01959 17.9564 -4.52888 -2.24687 36.1791 -2.28284 -0.0 0.0 -0.0 1.26343 23.4806 4.44528 -30.9915 -31.8034 53.6279 0.757168 -20.56 0.13733 -59.118 -5.17327 5.07288 0.864528 4.19043 7.47299 -0.0 0.0 -0.0 11.6142 26.785 -22.4126 1.78784 29.6551 -62.7615 2.04708 45.3947 -0.856277 -2.16751 0.081396 -0.264797 4.28065 3.92592 -28.2996 0.0 0.0 0.0 -0.523297 11.3835 3.14441 -8.95393 0.263817 1.34743 0.600099 28.9841 -0.0936787 10.5803 -0.0 -0.0 -0.0 0.0 -0.0 -4.06245 33.4652 8.30219 -17.6374 -0.31628 -2.67747 23.9593 -6.19542 3.20934 -8.17307 0.0 0.0 0.0 0.0 0.0 
